<svg xmlns="http://www.w3.org/2000/svg" width="123" height="24" viewBox="0 0 123 24">
    <g fill="none" fill-rule="evenodd">
        <text fill="#FFF" font-family="ArialRoundedMTBold, Arial Rounded MT Bold" font-size="16">
            <tspan x="35" y="17">BetterDesk</tspan>
        </text>
        <g>
            <rect width="25" height="24" fill="#3DBDB6" rx="9"/>
            <path fill="#FFF" fill-rule="nonzero" d="M9.302 7.246a1.26 1.26 0 0 1 1.256 1.265 1.26 1.26 0 0 1-1.256 1.264 1.26 1.26 0 0 1-1.255-1.264 1.26 1.26 0 0 1 1.255-1.265zm7.117 0a1.26 1.26 0 0 1 1.255 1.265 1.26 1.26 0 0 1-1.255 1.264 1.26 1.26 0 0 1-1.256-1.264 1.26 1.26 0 0 1 1.256-1.265zM7 13.358h11.72c-.854 2.454-3.155 4.215-5.86 4.215-2.704 0-5.005-1.761-5.86-4.215z"/>
        </g>
    </g>
</svg>
